<svg width="17" height="20" viewBox="0 0 17 20" fill="none" xmlns="http://www.w3.org/2000/svg">
<path d="M10 8V6.5C10 6.10218 9.84196 5.72064 9.56066 5.43934C9.27936 5.15804 8.89782 5 8.5 5C8.10218 5 7.72064 5.15804 7.43934 5.43934C7.15804 5.72064 7 6.10218 7 6.5V9M7 9V2.5C7 2.10218 6.84196 1.72064 6.56066 1.43934C6.27936 1.15804 5.89782 1 5.5 1C5.10218 1 4.72064 1.15804 4.43934 1.43934C4.15804 1.72064 4 2.10218 4 2.5V9.5M7 9V10M10 9V7.5C10 7.10218 10.158 6.72064 10.4393 6.43934C10.7206 6.15804 11.1022 6 11.5 6C11.8978 6 12.2794 6.15804 12.5607 6.43934C12.842 6.72064 13 7.10218 13 7.5V8M13 8H14C14.5304 8 15.0391 8.21071 15.4142 8.58579C15.7893 8.96086 16 9.46957 16 10V11.5C16 17.5 11 19 8.5 19C2.5 19 1 14 1 11.5V9.5C1 9.10218 1.15804 8.72064 1.43934 8.43934C1.72064 8.15804 2.10218 8 2.5 8C2.89782 8 3.27936 8.15804 3.56066 8.43934C3.84196 8.72064 4 9.10218 4 9.5M13 8V10M4 9.5V12" stroke="black" stroke-width="2" stroke-linecap="round"/>
</svg>
